<svg xmlns="http://www.w3.org/2000/svg" xmlns:xlink="http://www.w3.org/1999/xlink" width="28" height="28" viewBox="0 0 28 28">
  <defs>
    <clipPath id="clip-path">
      <rect id="Rectangle_3675" data-name="Rectangle 3675" width="16.375" height="11.376" fill="#2f9af5"/>
    </clipPath>
  </defs>
  <g id="Group_74353" data-name="Group 74353" transform="translate(-3019.72 -835.72)">
    <circle id="Ellipse_329" data-name="Ellipse 329" cx="14" cy="14" r="14" transform="translate(3019.72 835.72)" fill="#dff1fe"/>
    <g id="Group_74354" data-name="Group 74354" transform="matrix(0.809, -0.588, 0.588, 0.809, 3023.753, 849.931)">
      <g id="Group_74353-2" data-name="Group 74353" transform="translate(0 0)" clip-path="url(#clip-path)">
        <path id="Path_11671" data-name="Path 11671" d="M16.275,6.182a1.385,1.385,0,0,0,.05-.238,1.2,1.2,0,0,0,.048-.206c0-.008,0-.016,0-.024s0-.017,0-.027,0-.016,0-.026,0-.016,0-.024a1.066,1.066,0,0,0-.048-.206,1.269,1.269,0,0,0-.05-.238l-.016-.046a1.282,1.282,0,0,0-.135-.2,1.242,1.242,0,0,0-.109-.176A.111.111,0,0,0,16,4.758l-.035-.036c-.007-.007-.009-.016-.016-.023L11.241.358A1.346,1.346,0,1,0,9.412,2.332l2.176,2.009H1.346a1.346,1.346,0,1,0,0,2.691H11.588L9.411,9.043a1.346,1.346,0,0,0,1.83,1.974l4.7-4.343c.007-.007.009-.016.016-.023s.024-.023.035-.035.015-.008.02-.015a1.323,1.323,0,0,0,.109-.176,1.232,1.232,0,0,0,.135-.2l.016-.044" transform="translate(0 0.001)" fill="#2f9af5"/>
      </g>
    </g>
  </g>
</svg>
